<?xml version="1.0" standalone="no"?>
<!DOCTYPE svg PUBLIC "-//W3C//DTD SVG 20010904//EN"
 "http://www.w3.org/TR/2001/REC-SVG-20010904/DTD/svg10.dtd">
<svg version="1.0" xmlns="http://www.w3.org/2000/svg"
 width="512.000000pt" height="512.000000pt" viewBox="0 0 512.000000 512.000000"
 preserveAspectRatio="xMidYMid meet">

<g transform="translate(0.000000,512.000000) scale(0.100000,-0.100000)"
fill="#000000" stroke="none">
<path d="M2139 5102 c-78 -21 -151 -66 -212 -131 -85 -91 -117 -184 -117 -343
l0 -108 -605 0 -605 0 2 -452 3 -453 157 -3 c156 -2 158 -3 158 -25 0 -12 63
-742 140 -1622 90 -1039 145 -1618 155 -1651 43 -143 167 -259 322 -299 86
-22 1960 -22 2046 0 155 40 279 156 322 299 10 33 65 612 155 1651 77 880 140
1610 140 1622 0 22 2 23 158 25 l157 3 3 453 2 452 -604 0 -604 0 -4 128 c-4
102 -9 139 -27 185 -42 108 -149 214 -261 259 -53 22 -68 23 -435 25 -335 2
-388 0 -446 -15z m791 -304 c64 -33 80 -71 80 -185 l0 -93 -450 0 -450 0 0 93
c0 112 17 151 80 184 42 23 49 23 369 23 319 0 328 -1 371 -22z m1288 -730 l3
-148 -1661 0 -1660 0 0 143 c0 79 3 147 7 150 3 4 749 6 1657 5 l1651 -3 3
-147z m-318 -470 c0 -7 -63 -727 -139 -1599 -150 -1726 -137 -1623 -204 -1673
l-28 -21 -969 0 -969 0 -28 21 c-67 50 -54 -53 -204 1673 -76 872 -139 1592
-139 1599 0 9 275 12 1340 12 1065 0 1340 -3 1340 -12z"/>
<path d="M1810 1880 l0 -831 148 3 147 3 3 828 2 827 -150 0 -150 0 0 -830z"/>
<path d="M2410 1880 l0 -830 150 0 150 0 0 830 0 830 -150 0 -150 0 0 -830z"/>
<path d="M3012 1883 l3 -828 148 -3 147 -3 0 831 0 830 -150 0 -150 0 2 -827z"/>
</g>
</svg>
